<svg width="28" height="24" viewBox="0 0 28 24" fill="none" xmlns="http://www.w3.org/2000/svg">
<g clip-path="url(#clip0_112_52305)">
<path d="M12.6335 21.9547C10.2542 21.6276 8.07229 20.4541 6.48765 18.6494C4.88332 16.8246 3.99897 14.4777 4 12.0479C4.00269 9.39663 5.0572 6.85475 6.93184 4.97989C8.80648 3.10504 11.3482 2.05036 13.9995 2.04736C16.6509 2.05036 19.1928 3.105 21.0676 4.97983C22.9424 6.85465 23.997 9.39653 24 12.0479C24.0008 14.4674 23.1238 16.805 21.5317 18.6268C19.9591 20.4285 17.7924 21.6064 15.4253 21.9468L15.4118 15.0829H17.7797L18.1281 12.36H15.4276V10.622C15.4276 9.83049 15.6539 9.30243 16.7847 9.30243H18.2106V6.86785C17.5429 6.80035 16.8722 6.76642 16.2011 6.76612H16.1163C15.641 6.73414 15.1643 6.8059 14.7194 6.97642C14.2746 7.14694 13.8722 7.4121 13.5401 7.75362C13.2079 8.09513 12.9539 8.50483 12.7958 8.95424C12.6377 9.40365 12.5792 9.88206 12.6244 10.3563V12.36H10.2803V15.0863H12.6244L12.6393 21.9535L12.6335 21.9547Z" fill="#333333"/>
</g>
<defs>
<clipPath id="clip0_112_52305">
<rect width="20" height="19.9073" fill="white" transform="translate(4 2.04639)"/>
</clipPath>
</defs>
</svg>
