<svg width="28" height="24" viewBox="0 0 28 24" fill="none" xmlns="http://www.w3.org/2000/svg">
<g clip-path="url(#clip0_112_52316)">
<path d="M8.98836 2C7.66619 2.0027 6.39895 2.52913 5.46404 3.46404C4.52913 4.39895 4.0027 5.66619 4 6.98836V17.0105C4.0027 18.3327 4.52913 19.5999 5.46404 20.5348C6.39895 21.4697 7.66619 21.9962 8.98836 21.9989H19.0105C20.3327 21.9962 21.5999 21.4697 22.5348 20.5348C23.4697 19.5999 23.9962 18.3327 23.9989 17.0105V6.98836C23.9962 5.66639 23.4699 4.39932 22.5352 3.46444C21.6006 2.52956 20.3336 2.003 19.0116 2H8.98836ZM8.98836 3.99602H19.0105C19.804 3.99753 20.5645 4.31339 21.1256 4.87445C21.6866 5.43551 22.0025 6.19604 22.004 6.98949V17.0116C22.0025 17.8051 21.6866 18.5656 21.1256 19.1267C20.5645 19.6877 19.804 20.0036 19.0105 20.0051H8.98836C8.1949 20.0036 7.43437 19.6877 6.87331 19.1267C6.31225 18.5656 5.99639 17.8051 5.99489 17.0116V6.98836C5.99669 6.1951 6.31269 5.43486 6.87371 4.87405C7.43474 4.31323 8.1951 3.99752 8.98836 3.99602ZM18.9855 6.01363C18.7882 6.01363 18.5954 6.07213 18.4314 6.18173C18.2673 6.29133 18.1395 6.44711 18.064 6.62937C17.9885 6.81163 17.9688 7.01218 18.0072 7.20567C18.0457 7.39915 18.1407 7.57688 18.2802 7.71638C18.4197 7.85587 18.5974 7.95087 18.7909 7.98936C18.9844 8.02784 19.185 8.00809 19.3672 7.93259C19.5495 7.8571 19.7053 7.72926 19.8149 7.56523C19.9245 7.4012 19.983 7.20835 19.983 7.01108C19.9824 6.74731 19.8776 6.49447 19.6914 6.30764C19.5052 6.12081 19.2527 6.01513 18.9889 6.01363H18.9855ZM13.9972 7.01108C13.0106 7.01175 12.0464 7.30494 11.2265 7.85358C10.4065 8.40222 9.7677 9.18166 9.39073 10.0934C9.01377 11.0051 8.9156 12.0081 9.10865 12.9755C9.30169 13.943 9.77728 14.8315 10.4753 15.5287C11.1733 16.2259 12.0623 16.7005 13.03 16.8925C13.9977 17.0844 15.0006 16.9851 15.9119 16.6071C16.8232 16.2291 17.6019 15.5894 18.1496 14.7688C18.6973 13.9483 18.9894 12.9837 18.9889 11.9972C18.9856 10.6748 18.4585 9.40763 17.5229 8.47311C16.5873 7.53859 15.3195 7.01288 13.9972 7.01108ZM13.9972 9.0071C14.5895 9.00643 15.1687 9.1815 15.6615 9.51017C16.1543 9.83884 16.5385 10.3063 16.7655 10.8534C16.9925 11.4006 17.0521 12.0027 16.9367 12.5837C16.8213 13.1647 16.5361 13.6984 16.1173 14.1173C15.6984 14.5361 15.1647 14.8213 14.5837 14.9367C14.0027 15.0521 13.4006 14.9925 12.8534 14.7655C12.3063 14.5385 11.8388 14.1543 11.5102 13.6615C11.1815 13.1687 11.0064 12.5895 11.0071 11.9972C11.0095 11.2049 11.3253 10.4457 11.8855 9.88552C12.4457 9.32529 13.2049 9.0095 13.9972 9.0071Z" fill="#333333"/>
</g>
<defs>
<clipPath id="clip0_112_52316">
<rect width="20" height="20" fill="white" transform="translate(4 2)"/>
</clipPath>
</defs>
</svg>
