<svg width="1390" height="326" viewBox="0 0 1390 326" fill="none" xmlns="http://www.w3.org/2000/svg">
<path d="M1380.57 272.164L1375.38 292.432L1360.47 277.794L1380.57 272.164Z" fill="#479EBB"/>
<path d="M1302.7 26.6921C1309.98 26.6921 1315.88 20.769 1315.88 13.4625C1315.88 6.15601 1309.98 0.23291 1302.7 0.23291C1295.41 0.23291 1289.51 6.15601 1289.51 13.4625C1289.51 20.769 1295.41 26.6921 1302.7 26.6921Z" fill="#3E5868"/>
<path d="M1315.86 12.7532H1289.51C1289.51 12.7532 1288.46 20.0965 1300.23 40.208C1300.74 41.0862 1301.68 41.6096 1302.69 41.6096C1303.71 41.6096 1304.65 41.0947 1305.16 40.2166C1316.93 20.103 1315.86 12.7532 1315.86 12.7532Z" fill="#3E5868"/>
<path opacity="0.8" d="M1302.69 42.039V42.1138H1302.69C1301.54 42.1138 1300.47 41.4793 1299.9 40.4943C1293.02 28.7389 1290.5 21.3058 1289.59 17.1459C1289.33 16.1887 1289.19 15.2508 1289.14 14.2893C1289.06 13.3065 1289.12 12.892 1289.13 12.8472L1289.16 12.6356C1289.69 5.52943 1295.59 0 1302.7 0C1309.8 0 1315.84 5.60848 1316.24 12.7724C1316.25 12.8664 1316.27 13.1035 1316.26 13.501V13.5501C1316.26 14.8491 1316.08 16.1353 1315.72 17.3745C1314.79 21.5302 1312.25 28.8906 1305.49 40.4473C1304.91 41.4387 1303.88 42.039 1302.69 42.039ZM1289.87 13.3471C1289.87 13.5458 1289.87 13.8278 1289.91 14.2552C1289.95 15.1653 1290.09 16.0413 1290.34 16.9494L1290.34 16.9643C1291.23 21.0665 1293.72 28.4078 1300.56 40.0841C1301 40.8362 1301.81 41.3019 1302.69 41.3019V41.6844V41.2998C1303.48 41.2998 1304.39 40.8298 1304.83 40.0713C1311.55 28.5872 1314.06 21.2887 1314.98 17.1887L1314.98 17.1652C1315.33 15.9922 1315.42 14.7743 1315.42 13.5437L1315.35 13.4903V13.486C1315.35 13.1036 1315.41 12.8963 1315.4 12.8408L1315.44 12.8194C1315.07 6.0593 1309.47 0.762755 1302.68 0.762755C1295.88 0.762755 1290.29 6.13408 1289.9 12.954L1289.89 13.345H1289.87L1289.87 13.3471Z" fill="url(#paint0_linear_205_11150)"/>
<path d="M1308.12 18.8205C1311.1 15.8376 1311.1 11.0013 1308.12 8.0184C1305.15 5.03549 1300.33 5.03549 1297.35 8.0184C1294.38 11.0013 1294.38 15.8376 1297.35 18.8205C1300.33 21.8034 1305.15 21.8034 1308.12 18.8205Z" fill="#10374C"/>
<path d="M1302.74 21.4853C1298.31 21.4853 1294.7 17.8681 1294.7 13.4198C1294.7 8.97145 1298.3 5.35425 1302.74 5.35425C1307.17 5.35425 1310.78 8.97145 1310.78 13.4198C1310.78 17.8681 1307.17 21.4853 1302.74 21.4853ZM1302.74 6.20674C1298.77 6.20674 1295.55 9.4415 1295.55 13.4176C1295.55 17.3938 1298.77 20.6286 1302.74 20.6286C1306.7 20.6286 1309.93 17.3938 1309.93 13.4176C1309.93 9.4415 1306.7 6.20674 1302.74 6.20674Z" fill="#3E5868"/>
<path d="M1295.51 5.46746C1295.48 5.46746 1295.44 5.45251 1295.42 5.42259C1295.37 5.36918 1295.38 5.28799 1295.43 5.24312C1297.57 3.39927 1300.3 2.3844 1303.13 2.3844C1303.2 2.3844 1303.25 2.44209 1303.25 2.51259C1303.25 2.5831 1303.2 2.64079 1303.13 2.64079C1300.36 2.64079 1297.69 3.63429 1295.6 5.43755C1295.57 5.45892 1295.54 5.46746 1295.51 5.46746Z" fill="url(#paint1_linear_205_11150)"/>
<path d="M1291.44 14.3663C1291.37 14.3663 1291.31 14.3086 1291.31 14.2381C1291.31 12.0267 1291.92 9.86879 1293.08 7.99715C1293.11 7.93733 1293.19 7.9181 1293.25 7.95656C1293.31 7.99288 1293.33 8.07193 1293.29 8.13389C1292.16 9.96279 1291.56 12.0759 1291.56 14.2402C1291.56 14.3107 1291.51 14.3684 1291.43 14.3684L1291.44 14.3663Z" fill="url(#paint2_linear_205_11150)"/>
<path d="M986.695 305.692C993.979 305.692 999.883 299.769 999.883 292.463C999.883 285.156 993.979 279.233 986.695 279.233C979.412 279.233 973.507 285.156 973.507 292.463C973.507 299.769 979.412 305.692 986.695 305.692Z" fill="#3A7386"/>
<path d="M999.857 291.753H973.507C973.507 291.753 972.457 299.097 984.227 319.208C984.74 320.086 985.679 320.61 986.693 320.61C987.707 320.61 988.648 320.095 989.161 319.217C1000.93 299.103 999.857 291.753 999.857 291.753Z" fill="#3A7386"/>
<path opacity="0.8" d="M986.689 321.039V321.114H986.693C985.545 321.114 984.474 320.479 983.897 319.494C977.017 307.739 974.495 300.306 973.592 296.146C973.335 295.189 973.188 294.251 973.141 293.289C973.062 292.307 973.122 291.892 973.13 291.847L973.164 291.636C973.695 284.529 979.592 279 986.695 279C993.798 279 999.84 284.608 1000.24 291.772C1000.25 291.866 1000.27 292.104 1000.26 292.501V292.55C1000.26 293.849 1000.08 295.135 999.721 296.375C998.786 300.53 996.252 307.891 989.487 319.447C988.906 320.439 987.875 321.039 986.689 321.039ZM973.867 292.347C973.865 292.546 973.869 292.828 973.905 293.255C973.95 294.165 974.089 295.041 974.336 295.949L974.34 295.964C975.23 300.067 977.724 307.408 984.557 319.084C984.998 319.836 985.811 320.302 986.691 320.302V320.684V320.3C987.481 320.3 988.386 319.83 988.829 319.071C995.549 307.587 998.056 300.289 998.976 296.189L998.982 296.165C999.325 294.992 999.423 293.774 999.423 292.544L999.346 292.49V292.486C999.346 292.104 999.41 291.896 999.404 291.841L999.44 291.819C999.065 285.059 993.47 279.763 986.676 279.763C979.882 279.763 974.289 285.134 973.903 291.954L973.893 292.345H973.869L973.867 292.347Z" fill="url(#paint3_linear_205_11150)"/>
<path d="M992.123 297.82C995.096 294.838 995.096 290.001 992.123 287.018C989.149 284.035 984.328 284.035 981.354 287.018C978.381 290.001 978.381 294.838 981.354 297.82C984.328 300.803 989.149 300.803 992.123 297.82Z" fill="#0B556C"/>
<path d="M986.738 300.485C982.306 300.485 978.698 296.868 978.698 292.42C978.698 287.971 982.303 284.354 986.738 284.354C991.172 284.354 994.778 287.971 994.778 292.42C994.778 296.868 991.172 300.485 986.738 300.485ZM986.738 285.207C982.774 285.207 979.55 288.441 979.55 292.418C979.55 296.394 982.774 299.629 986.738 299.629C990.701 299.629 993.926 296.394 993.926 292.418C993.926 288.441 990.701 285.207 986.738 285.207Z" fill="#3A7386"/>
<path d="M979.513 284.467C979.477 284.467 979.441 284.453 979.417 284.423C979.371 284.369 979.377 284.288 979.43 284.243C981.569 282.399 984.303 281.384 987.125 281.384C987.196 281.384 987.253 281.442 987.253 281.513C987.253 281.583 987.196 281.641 987.125 281.641C984.363 281.641 981.69 282.634 979.596 284.438C979.573 284.459 979.543 284.467 979.513 284.467Z" fill="url(#paint4_linear_205_11150)"/>
<path d="M975.437 293.366C975.367 293.366 975.309 293.309 975.309 293.238C975.309 291.027 975.92 288.869 977.077 286.997C977.113 286.937 977.192 286.918 977.251 286.957C977.311 286.993 977.33 287.072 977.292 287.134C976.161 288.963 975.563 291.076 975.563 293.24C975.563 293.311 975.505 293.368 975.435 293.368L975.437 293.366Z" fill="url(#paint5_linear_205_11150)"/>
<path d="M319.695 62.6921C326.979 62.6921 332.883 56.769 332.883 49.4625C332.883 42.156 326.979 36.2329 319.695 36.2329C312.412 36.2329 306.507 42.156 306.507 49.4625C306.507 56.769 312.412 62.6921 319.695 62.6921Z" fill="#3595AB"/>
<path d="M332.857 48.7532H306.507C306.507 48.7532 305.457 56.0965 317.227 76.208C317.74 77.0862 318.679 77.6096 319.693 77.6096C320.707 77.6096 321.648 77.0947 322.161 76.2166C333.929 56.103 332.857 48.7532 332.857 48.7532Z" fill="#3595AB"/>
<path opacity="0.8" d="M319.689 78.039V78.1138H319.693C318.545 78.1138 317.474 77.4793 316.897 76.4943C310.017 64.7389 307.495 57.3058 306.592 53.1459C306.335 52.1887 306.188 51.2508 306.141 50.2893C306.062 49.3065 306.122 48.892 306.13 48.8472L306.164 48.6356C306.695 41.5294 312.592 36 319.695 36C326.798 36 332.84 41.6085 333.243 48.7724C333.254 48.8664 333.273 49.1035 333.264 49.501V49.5501C333.264 50.8491 333.081 52.1353 332.721 53.3745C331.786 57.5302 329.252 64.8906 322.487 76.4473C321.906 77.4387 320.875 78.039 319.689 78.039ZM306.867 49.3471C306.865 49.5458 306.869 49.8278 306.905 50.2552C306.95 51.1653 307.089 52.0413 307.336 52.9494L307.34 52.9643C308.23 57.0665 310.724 64.4078 317.557 76.0841C317.998 76.8362 318.811 77.3019 319.691 77.3019V77.6844V77.2998C320.481 77.2998 321.386 76.8298 321.829 76.0713C328.549 64.5872 331.056 57.2887 331.976 53.1887L331.982 53.1652C332.325 51.9922 332.423 50.7743 332.423 49.5437L332.346 49.4903V49.486C332.346 49.1036 332.41 48.8963 332.404 48.8408L332.44 48.8194C332.065 42.0593 326.47 36.7628 319.676 36.7628C312.882 36.7628 307.289 42.1341 306.903 48.954L306.893 49.345H306.869L306.867 49.3471Z" fill="url(#paint6_linear_205_11150)"/>
<path d="M325.123 54.8205C328.096 51.8376 328.096 47.0013 325.123 44.0184C322.149 41.0355 317.328 41.0355 314.354 44.0184C311.381 47.0013 311.381 51.8376 314.354 54.8205C317.328 57.8034 322.149 57.8034 325.123 54.8205Z" fill="#06728C"/>
<path d="M319.738 57.4853C315.306 57.4853 311.698 53.8681 311.698 49.4198C311.698 44.9715 315.303 41.3542 319.738 41.3542C324.172 41.3542 327.778 44.9715 327.778 49.4198C327.778 53.8681 324.172 57.4853 319.738 57.4853ZM319.738 42.2067C315.774 42.2067 312.55 45.4415 312.55 49.4176C312.55 53.3938 315.774 56.6286 319.738 56.6286C323.701 56.6286 326.926 53.3938 326.926 49.4176C326.926 45.4415 323.701 42.2067 319.738 42.2067Z" fill="#3595AB"/>
<path d="M312.513 41.4675C312.477 41.4675 312.441 41.4525 312.417 41.4226C312.371 41.3692 312.377 41.288 312.43 41.2431C314.569 39.3993 317.303 38.3844 320.125 38.3844C320.196 38.3844 320.253 38.4421 320.253 38.5126C320.253 38.5831 320.196 38.6408 320.125 38.6408C317.363 38.6408 314.69 39.6343 312.596 41.4376C312.573 41.4589 312.543 41.4675 312.513 41.4675Z" fill="url(#paint7_linear_205_11150)"/>
<path d="M308.437 50.3663C308.367 50.3663 308.309 50.3086 308.309 50.2381C308.309 48.0267 308.92 45.8688 310.077 43.9972C310.113 43.9373 310.192 43.9181 310.251 43.9566C310.311 43.9929 310.33 44.0719 310.292 44.1339C309.161 45.9628 308.563 48.0759 308.563 50.2402C308.563 50.3107 308.505 50.3684 308.435 50.3684L308.437 50.3663Z" fill="url(#paint8_linear_205_11150)"/>
<path d="M37.6951 267.692C44.9786 267.692 50.883 261.769 50.883 254.463C50.883 247.156 44.9786 241.233 37.6951 241.233C30.4116 241.233 24.5072 247.156 24.5072 254.463C24.5072 261.769 30.4116 267.692 37.6951 267.692Z" fill="#32AEC5"/>
<path d="M50.8575 253.753H24.5072C24.5072 253.753 23.4572 261.097 35.2267 281.208C35.7399 282.086 36.6792 282.61 37.693 282.61C38.7068 282.61 39.6482 282.095 40.1615 281.217C51.9288 261.103 50.8575 253.753 50.8575 253.753Z" fill="#32AEC5"/>
<path opacity="0.8" d="M37.6887 283.039V283.114H37.693C36.545 283.114 35.4737 282.479 34.8965 281.494C28.0171 269.739 25.4954 262.306 24.5924 258.146C24.3347 257.189 24.1877 256.251 24.1409 255.289C24.0621 254.307 24.1217 253.892 24.1302 253.847L24.1643 253.636C24.6946 246.529 30.5921 241 37.6951 241C44.7981 241 50.8404 246.608 51.243 253.772C51.2536 253.866 51.2728 254.104 51.2643 254.501V254.55C51.2643 255.849 51.0811 257.135 50.7212 258.375C49.7862 262.53 47.2517 269.891 40.4873 281.447C39.9059 282.439 38.875 283.039 37.6887 283.039ZM24.8671 254.347C24.865 254.546 24.8693 254.828 24.9055 255.255C24.9502 256.165 25.0886 257.041 25.3357 257.949L25.34 257.964C26.2302 262.067 28.7243 269.408 35.5568 281.084C35.9976 281.836 36.8112 282.302 37.6908 282.302V282.684V282.3C38.481 282.3 39.3862 281.83 39.8292 281.071C46.5488 269.587 49.0556 262.289 49.9757 258.189L49.9821 258.165C50.325 256.992 50.423 255.774 50.423 254.544L50.3463 254.49V254.486C50.3463 254.104 50.4102 253.896 50.4038 253.841L50.44 253.819C50.0652 247.059 44.4701 241.763 37.6759 241.763C30.8818 241.763 25.2889 247.134 24.9034 253.954L24.8927 254.345H24.8693L24.8671 254.347Z" fill="url(#paint9_linear_205_11150)"/>
<path d="M43.1225 259.82C46.096 256.838 46.096 252.001 43.1225 249.018C40.149 246.035 35.328 246.035 32.3545 249.018C29.381 252.001 29.381 256.838 32.3545 259.82C35.328 262.803 40.149 262.803 43.1225 259.82Z" fill="#038FAC"/>
<path d="M37.7377 262.485C33.3056 262.485 29.6976 258.868 29.6976 254.42C29.6976 249.971 33.3034 246.354 37.7377 246.354C42.1721 246.354 45.7779 249.971 45.7779 254.42C45.7779 258.868 42.1721 262.485 37.7377 262.485ZM37.7377 247.207C33.7741 247.207 30.5496 250.441 30.5496 254.418C30.5496 258.394 33.7741 261.629 37.7377 261.629C41.7014 261.629 44.9259 258.394 44.9259 254.418C44.9259 250.441 41.7014 247.207 37.7377 247.207Z" fill="#32AEC5"/>
<path d="M30.5133 246.467C30.4771 246.467 30.4409 246.453 30.4175 246.423C30.3706 246.369 30.377 246.288 30.4302 246.243C32.5686 244.399 35.3033 243.384 38.1253 243.384C38.1956 243.384 38.2531 243.442 38.2531 243.513C38.2531 243.583 38.1956 243.641 38.1253 243.641C35.3629 243.641 32.69 244.634 30.5964 246.438C30.573 246.459 30.5431 246.467 30.5133 246.467Z" fill="url(#paint10_linear_205_11150)"/>
<path d="M26.4369 255.366C26.3666 255.366 26.3091 255.309 26.3091 255.238C26.3091 253.027 26.9204 250.869 28.0769 248.997C28.1131 248.937 28.1919 248.918 28.2515 248.957C28.3111 248.993 28.3303 249.072 28.2919 249.134C27.161 250.963 26.5625 253.076 26.5625 255.24C26.5625 255.311 26.505 255.368 26.4347 255.368L26.4369 255.366Z" fill="url(#paint11_linear_205_11150)"/>
<path d="M38.6006 284.149C197.101 307.211 150.601 99.6504 307.601 80.0976C547.601 65.0569 803.601 352.734 987.601 322.252C1194.6 307.713 1118.6 44 1304.6 44" stroke="url(#paint12_linear_205_11150)" stroke-dasharray="15 15"/>
<path d="M11.4726 18.8482L9.13573 27.9789L2.41813 21.3843L11.4726 18.8482Z" fill="#EEEEEE"/>
<path d="M211.949 254.935L208.721 267.548L199.441 258.438L211.949 254.935Z" fill="#78BECC"/>
<path d="M766.707 55.5111L763.324 68.7275L753.601 59.182L766.707 55.5111Z" fill="#479EBB"/>
<defs>
<linearGradient id="paint0_linear_205_11150" x1="1315.06" y1="2.28874e-07" x2="1286.38" y2="2.96009" gradientUnits="userSpaceOnUse">
<stop stop-color="#12273B"/>
<stop offset="1" stop-color="#00A1BF"/>
</linearGradient>
<linearGradient id="paint1_linear_205_11150" x1="1294.09" y1="-30.1576" x2="1297.09" y2="-10.7177" gradientUnits="userSpaceOnUse">
<stop stop-color="#FF928E"/>
<stop offset="1" stop-color="#FEB3B1"/>
</linearGradient>
<linearGradient id="paint2_linear_205_11150" x1="1286.16" y1="-28.9334" x2="1289.16" y2="-9.49347" gradientUnits="userSpaceOnUse">
<stop stop-color="#FF928E"/>
<stop offset="1" stop-color="#FEB3B1"/>
</linearGradient>
<linearGradient id="paint3_linear_205_11150" x1="999.062" y1="279" x2="970.375" y2="281.96" gradientUnits="userSpaceOnUse">
<stop stop-color="#12273B"/>
<stop offset="1" stop-color="#00A1BF"/>
</linearGradient>
<linearGradient id="paint4_linear_205_11150" x1="978.093" y1="248.842" x2="981.093" y2="268.282" gradientUnits="userSpaceOnUse">
<stop stop-color="#FF928E"/>
<stop offset="1" stop-color="#FEB3B1"/>
</linearGradient>
<linearGradient id="paint5_linear_205_11150" x1="970.163" y1="250.067" x2="973.164" y2="269.507" gradientUnits="userSpaceOnUse">
<stop stop-color="#FF928E"/>
<stop offset="1" stop-color="#FEB3B1"/>
</linearGradient>
<linearGradient id="paint6_linear_205_11150" x1="332.062" y1="36" x2="303.375" y2="38.9601" gradientUnits="userSpaceOnUse">
<stop stop-color="#12273B"/>
<stop offset="1" stop-color="#00A1BF"/>
</linearGradient>
<linearGradient id="paint7_linear_205_11150" x1="311.093" y1="5.84237" x2="314.093" y2="25.2823" gradientUnits="userSpaceOnUse">
<stop stop-color="#FF928E"/>
<stop offset="1" stop-color="#FEB3B1"/>
</linearGradient>
<linearGradient id="paint8_linear_205_11150" x1="303.163" y1="7.06665" x2="306.164" y2="26.5065" gradientUnits="userSpaceOnUse">
<stop stop-color="#FF928E"/>
<stop offset="1" stop-color="#FEB3B1"/>
</linearGradient>
<linearGradient id="paint9_linear_205_11150" x1="50.062" y1="241" x2="21.3754" y2="243.96" gradientUnits="userSpaceOnUse">
<stop stop-color="#12273B"/>
<stop offset="1" stop-color="#00A1BF"/>
</linearGradient>
<linearGradient id="paint10_linear_205_11150" x1="29.0927" y1="210.842" x2="32.0929" y2="230.282" gradientUnits="userSpaceOnUse">
<stop stop-color="#FF928E"/>
<stop offset="1" stop-color="#FEB3B1"/>
</linearGradient>
<linearGradient id="paint11_linear_205_11150" x1="21.1634" y1="212.067" x2="24.1637" y2="231.507" gradientUnits="userSpaceOnUse">
<stop stop-color="#FF928E"/>
<stop offset="1" stop-color="#FEB3B1"/>
</linearGradient>
<linearGradient id="paint12_linear_205_11150" x1="38.6006" y1="184.258" x2="1304.6" y2="184.258" gradientUnits="userSpaceOnUse">
<stop stop-color="#A1C2CF"/>
<stop offset="1" stop-color="#5E7D89"/>
</linearGradient>
</defs>
</svg>
